{"asset":{"version":"2.0","generator":"Blockbench 4.8.1 glTF exporter"},"scenes":[{"nodes":[5],"name":"blockbench_export"}],"scene":0,"nodes":[{"name":"sphere","mesh":0},{"rotation":[0,0,0.17364817766693033,0.984807753012208],"name":"sphere","mesh":1},{"rotation":[0,0,-0.23768589232617307,0.9713420698132614],"name":"sphere","mesh":2},{"rotation":[0,-0.1521233861899167,0,0.9883615104677607],"name":"sphere","mesh":3},{"rotation":[0,0.21643961393810288,0,0.9762960071199334],"name":"sphere","mesh":4},{"children":[0,1,2,3,4]}],"bufferViews":[{"buffer":0,"byteOffset":0,"byteLength":54144,"target":34962,"byteStride":12},{"buffer":0,"byteOffset":54144,"byteLength":54144,"target":34962,"byteStride":12},{"buffer":0,"byteOffset":108288,"byteLength":36096,"target":34962,"byteStride":8},{"buffer":0,"byteOffset":144384,"byteLength":13248,"target":34963},{"buffer":0,"byteOffset":157632,"byteLength":54144,"target":34962,"byteStride":12},{"buffer":0,"byteOffset":211776,"byteLength":54144,"target":34962,"byteStride":12},{"buffer":0,"byteOffset":265920,"byteLength":36096,"target":34962,"byteStride":8},{"buffer":0,"byteOffset":302016,"byteLength":13248,"target":34963},{"buffer":0,"byteOffset":315264,"byteLength":54144,"target":34962,"byteStride":12},{"buffer":0,"byteOffset":369408,"byteLength":54144,"target":34962,"byteStride":12},{"buffer":0,"byteOffset":423552,"byteLength":36096,"target":34962,"byteStride":8},{"buffer":0,"byteOffset":459648,"byteLength":13248,"target":34963},{"buffer":0,"byteOffset":472896,"byteLength":54144,"target":34962,"byteStride":12},{"buffer":0,"byteOffset":527040,"byteLength":54144,"target":34962,"byteStride":12},{"buffer":0,"byteOffset":581184,"byteLength":36096,"target":34962,"byteStride":8},{"buffer":0,"byteOffset":617280,"byteLength":13248,"target":34963},{"buffer":0,"byteOffset":630528,"byteLength":54144,"target":34962,"byteStride":12},{"buffer":0,"byteOffset":684672,"byteLength":54144,"target":34962,"byteStride":12},{"buffer":0,"byteOffset":738816,"byteLength":36096,"target":34962,"byteStride":8},{"buffer":0,"byteOffset":774912,"byteLength":13248,"target":34963}],"buffers":[{"byteLength":788160,"uri":"data:application/octet-stream;base64,"}],"accessors":[{"bufferView":0,"componentType":5126,"count":4512,"max":[0.375,0.8125,0.375],"min":[-0.375,0.0625,-0.375],"type":"VEC3"},{"bufferView":1,"componentType":5126,"count":4512,"max":[0.9978589415550232,0.9978589415550232,0.9978589415550232],"min":[-0.9978589415550232,-0.9978589415550232,-0.9978589415550232],"type":"VEC3"},{"bufferView":2,"componentType":5126,"count":4512,"max":[0.5831630229949951,0.5234375],"min":[0,0],"type":"VEC2"},{"bufferView":3,"componentType":5123,"count":6624,"max":[4511],"min":[0],"type":"SCALAR"},{"bufferView":4,"componentType":5126,"count":4512,"max":[0.5625,0.4375,0.125],"min":[0.3125,-0.0625,-0.125],"type":"VEC3"},{"bufferView":5,"componentType":5126,"count":4512,"max":[0.9994634389877319,0.9915173053741455,0.9994634389877319],"min":[-0.9994634389877319,-0.9915173053741455,-0.9994634389877319],"type":"VEC3"},{"bufferView":6,"componentType":5126,"count":4512,"max":[0.5394259095191956,0.578125],"min":[0.0014382845256477594,0.0001792311668395996],"type":"VEC2"},{"bufferView":7,"componentType":5123,"count":6624,"max":[4511],"min":[0],"type":"SCALAR"},{"bufferView":8,"componentType":5126,"count":4512,"max":[-0.375,0.375,0.125],"min":[-0.625,-0.125,-0.125],"type":"VEC3"},{"bufferView":9,"componentType":5126,"count":4512,"max":[0.9994634389877319,0.9915173053741455,0.9994634389877319],"min":[-0.9994634389877319,-0.9915173053741455,-0.9994634389877319],"type":"VEC3"},{"bufferView":10,"componentType":5126,"count":4512,"max":[0.5394259095191956,0.578125],"min":[0.0014382845256477594,0.0001792311668395996],"type":"VEC2"},{"bufferView":11,"componentType":5123,"count":6624,"max":[4511],"min":[0],"type":"SCALAR"},{"bufferView":12,"componentType":5126,"count":4512,"max":[0.25,0.1875,0.125],"min":[-2.7755575615628914e-17,-0.0625,-0.375],"type":"VEC3"},{"bufferView":13,"componentType":5126,"count":4512,"max":[0.9978589415550232,0.9994634389877319,0.9915173053741455],"min":[-0.9978589415550232,-0.9994634389877319,-0.9915173053741455],"type":"VEC3"},{"bufferView":14,"componentType":5126,"count":4512,"max":[0.5625,0.5625],"min":[0,0],"type":"VEC2"},{"bufferView":15,"componentType":5123,"count":6624,"max":[4511],"min":[0],"type":"SCALAR"},{"bufferView":16,"componentType":5126,"count":4512,"max":[-2.7755575615628914e-17,0.1875,0.125],"min":[-0.25,-0.0625,-0.375],"type":"VEC3"},{"bufferView":17,"componentType":5126,"count":4512,"max":[0.9978589415550232,0.9994634389877319,0.9915173053741455],"min":[-0.9978589415550232,-0.9994634389877319,-0.9915173053741455],"type":"VEC3"},{"bufferView":18,"componentType":5126,"count":4512,"max":[0.5625,0.5625],"min":[0,0],"type":"VEC2"},{"bufferView":19,"componentType":5123,"count":6624,"max":[4511],"min":[0],"type":"SCALAR"}],"materials":[{"pbrMetallicRoughness":{"metallicFactor":0,"roughnessFactor":1,"baseColorTexture":{"index":0}},"alphaMode":"MASK","alphaCutoff":0.05,"doubleSided":true},{"pbrMetallicRoughness":{"metallicFactor":0,"roughnessFactor":1,"baseColorTexture":{"index":1}},"alphaMode":"MASK","alphaCutoff":0.05,"doubleSided":true},{"pbrMetallicRoughness":{"metallicFactor":0,"roughnessFactor":1,"baseColorTexture":{"index":2}},"alphaMode":"MASK","alphaCutoff":0.05,"doubleSided":true}],"textures":[{"sampler":0,"source":0,"name":"texture"},{"sampler":1,"source":1,"name":"texture"},{"sampler":2,"source":2,"name":"texture"}],"samplers":[{"magFilter":9728,"minFilter":9728,"wrapS":33071,"wrapT":33071},{"magFilter":9728,"minFilter":9728,"wrapS":33071,"wrapT":33071},{"magFilter":9728,"minFilter":9728,"wrapS":33071,"wrapT":33071}],"images":[{"mimeType":"image/png","uri":"data:image/png;base64,"},{"mimeType":"image/png","uri":"data:image/png;base64,"},{"mimeType":"image/png","uri":"data:image/png;base64,"}],"meshes":[{"primitives":[{"mode":4,"attributes":{"POSITION":0,"NORMAL":1,"TEXCOORD_0":2},"indices":3,"material":0}]},{"primitives":[{"mode":4,"attributes":{"POSITION":4,"NORMAL":5,"TEXCOORD_0":6},"indices":7,"material":1}]},{"primitives":[{"mode":4,"attributes":{"POSITION":8,"NORMAL":9,"TEXCOORD_0":10},"indices":11,"material":1}]},{"primitives":[{"mode":4,"attributes":{"POSITION":12,"NORMAL":13,"TEXCOORD_0":14},"indices":15,"material":2}]},{"primitives":[{"mode":4,"attributes":{"POSITION":16,"NORMAL":17,"TEXCOORD_0":18},"indices":19,"material":2}]}]}